<?xml version="1.0" encoding="utf-8"?>
<!-- Generator: Adobe Illustrator 23.0.0, SVG Export Plug-In . SVG Version: 6.00 Build 0)  -->
<svg version="1.1" id="图层_1" xmlns="http://www.w3.org/2000/svg" xmlns:xlink="http://www.w3.org/1999/xlink" x="0px" y="0px"
	 viewBox="0 0 108.63 102.26" style="enable-background:new 0 0 108.63 102.26;" xml:space="preserve">
<style type="text/css">
	.st0{fill:#D22229;}
	.st1{fill:#FFFFFF;}
</style>
<g>
	<path class="st0" d="M25.21,29.4L54.61,0C38.37,0,25.21,13.16,25.21,29.4"/>
	<path class="st0" d="M54.61,58.8l-29.4-29.4C25.21,45.63,38.37,58.8,54.61,58.8"/>
	<path class="st0" d="M39.91,29.4l14.7,14.7l14.7-14.7l-3.68-3.67l-7.35,7.35l-7.35-7.35l14.7-14.7L84.01,29.4
		C84.01,13.16,70.85,0,54.61,0l7.35,7.35"/>
	<path class="st0" d="M54.61,58.8c16.24,0,29.4-13.16,29.4-29.4"/>
</g>
<path class="st1" d="M41.64,78.44c-0.21,0.57-0.63,1.21-2.05,1.21l-0.98-0.01v-8.42l0.98-0.01c1.42,0,1.84,0.64,2.05,1.21
	c0.21,0.58,0.22,1.29,0.22,3.01C41.86,77.15,41.85,77.85,41.64,78.44 M39.7,69.07h-3.38v12.72h3.38c1.99,0,3.26-0.68,3.85-1.97
	c0.49-1.07,0.61-1.87,0.61-4.39c0-2.52-0.12-3.32-0.61-4.39C42.96,69.74,41.7,69.07,39.7,69.07 M30.79,78.75
	C30.65,79.61,29.97,80,29.13,80c-0.84,0-1.52-0.38-1.66-1.24c-0.06-0.42-0.07-1.65-0.07-3.32c0-1.67,0.01-2.9,0.07-3.32
	c0.14-0.86,0.81-1.24,1.66-1.24c0.84,0,1.52,0.38,1.65,1.24c0.07,0.42,0.07,1.65,0.07,3.32C30.86,77.1,30.85,78.33,30.79,78.75
	 M29.13,68.65c-2.66,0-3.74,1.58-3.98,3.09c-0.12,0.73-0.11,2.08-0.11,3.7s0,2.97,0.11,3.7c0.23,1.5,1.32,3.08,3.98,3.08
	c2.66,0,3.74-1.58,3.98-3.08c0.11-0.73,0.11-2.08,0.11-3.7s0-2.97-0.11-3.7C32.87,70.23,31.79,68.65,29.13,68.65 M19.69,78.76
	C19.56,79.62,18.88,80,18.03,80c-0.84,0-1.52-0.38-1.65-1.24c-0.07-0.42-0.07-1.65-0.07-3.33c0-1.67,0-2.9,0.07-3.32
	c0.13-0.86,0.81-1.24,1.65-1.24c0.84,0,1.52,0.38,1.66,1.24c0.07,0.42,0.07,1.65,0.07,3.32C19.76,77.11,19.76,78.34,19.69,78.76
	 M18.03,68.65c-2.66,0-3.74,1.58-3.98,3.09c-0.11,0.73-0.11,2.08-0.11,3.7c0,1.62,0,2.97,0.11,3.7c0.23,1.51,1.32,3.09,3.98,3.09
	c2.66,0,3.74-1.58,3.98-3.09c0.11-0.73,0.11-2.08,0.11-3.7c0-1.62,0-2.97-0.11-3.7C21.78,70.23,20.7,68.65,18.03,68.65 M7.07,77.01
	h1.61c-0.01,0.83,0,1.46-0.05,1.75C8.49,79.67,7.93,80,7.06,80c-0.84,0-1.47-0.38-1.6-1.24c-0.07-0.42-0.07-1.65-0.07-3.33
	c0-1.67,0-2.9,0.07-3.32c0.13-0.86,0.71-1.24,1.55-1.24c0.82,0,1.4,0.42,1.53,1.25c0.03,0.18,0.05,0.64,0.06,1.04h2.3
	c0-0.47-0.03-1.09-0.08-1.41c-0.23-1.46-1.15-3.09-3.77-3.09c-2.66,0-3.68,1.58-3.91,3.09c-0.11,0.73-0.11,2.08-0.11,3.7
	c0,1.62,0,2.97,0.11,3.7c0.24,1.53,1.38,3.09,3.73,3.09c1.14,0,1.96-0.44,2.52-1.29L9.7,81.8h1.23V75H7.07V77.01z M91.7,77.01h1.61
	c-0.01,0.83,0,1.46-0.05,1.75c-0.14,0.91-0.7,1.24-1.57,1.24c-0.84,0-1.47-0.38-1.6-1.24c-0.06-0.42-0.07-1.65-0.07-3.32
	c0-1.67,0.01-2.9,0.07-3.33c0.14-0.86,0.71-1.24,1.55-1.24c0.83,0,1.4,0.42,1.53,1.25c0.03,0.18,0.05,0.64,0.06,1.04h2.3
	c0.01-0.47-0.03-1.09-0.08-1.42c-0.23-1.46-1.15-3.09-3.77-3.09c-2.66,0-3.68,1.58-3.91,3.09c-0.11,0.73-0.11,2.08-0.11,3.7
	c0,1.62,0,2.97,0.11,3.7c0.24,1.53,1.37,3.09,3.73,3.09c1.14,0,1.96-0.44,2.52-1.29l0.32,0.86h1.23v-4.79h0V75H91.7V77.01z
	 M64.23,76.45h3.84V74.3h-3.84v-3.09h4.35v-2.15h-6.65v12.72h6.79v-2.15h-4.49V76.45z M82.12,81.79h2.36V69.07h-2.36V81.79z
	 M104.64,69.07v8.06l-3.16-8.06h-2.69v12.72h2.22v-8.73l3.49,8.73h2.36V69.07H104.64z M56.41,78.44c-0.21,0.57-0.63,1.21-2.05,1.21
	l-0.98-0.01v-8.42l0.98-0.01c1.42,0,1.84,0.64,2.05,1.21c0.21,0.58,0.22,1.29,0.22,3.01C56.63,77.15,56.62,77.85,56.41,78.44
	 M54.47,69.07h-3.38v12.72h3.38c2,0,3.26-0.68,3.85-1.97c0.49-1.07,0.61-1.88,0.61-4.39c0-2.52-0.12-3.32-0.61-4.39
	C57.73,69.75,56.46,69.07,54.47,69.07 M73.67,72.15c0-0.9,0.69-1.37,1.54-1.37c0.83,0,1.6,0.5,1.62,1.75h2.22
	c-0.03-2.82-1.98-3.88-3.83-3.88c-1.95,0-3.87,1.2-3.87,3.5c0,3.69,5.51,3.81,5.51,6.39c0,0.96-0.73,1.5-1.7,1.5
	c-0.97,0-1.81-0.68-1.91-1.98h-2.26c0.09,2.92,2.19,4.15,4.17,4.15c1.96,0,4.02-1.04,4.02-3.67C79.18,74.59,73.67,74.34,73.67,72.15
	 M5.77,97.49l1.29-5.51l1.29,5.51H5.77z M5.54,89.24l-3.18,12.72h2.37l0.56-2.4h3.55l0.56,2.4h2.37L8.58,89.24H5.54z M30.32,97.49
	l1.29-5.51l1.29,5.51H30.32z M30.08,89.24l-3.18,12.72h2.37l0.56-2.4h3.55l0.56,2.4h2.36l-3.17-12.72H30.08z M42.74,95.03l-1.58,0
	v-3.68l1.58,0c1.28,0,1.76,0.64,1.76,1.85C44.5,94.39,44.01,95.03,42.74,95.03 M46.87,93.18c0-2.54-1.4-3.94-4.02-3.94H38.8v12.72
	h2.37v-4.84h1.58l1.88,4.84h2.55l-2.13-5.29C46.24,96.08,46.87,94.89,46.87,93.18 M55.21,98.61c-0.21,0.57-0.63,1.21-2.05,1.21
	l-0.98-0.01V91.4l0.98-0.01c1.42,0,1.84,0.64,2.05,1.21c0.21,0.59,0.22,1.29,0.22,3.01C55.43,97.32,55.42,98.03,55.21,98.61
	 M57.12,91.21c-0.59-1.29-1.86-1.97-3.85-1.97h-3.38v12.72h3.38c1.99,0,3.26-0.68,3.85-1.97c0.49-1.07,0.61-1.88,0.61-4.39
	C57.73,93.09,57.61,92.28,57.12,91.21 M21.93,97.9l-1.36-8.66h-2.48l-1.36,8.66l-1.53-8.66h-2.27l2.43,12.72h2.58l1.39-8.85
	l1.25,8.85h2.6l2.54-12.72h-2.28L21.93,97.9z M79.65,98.79c-0.13,0.86-0.66,1.25-1.48,1.25c-0.82,0-1.35-0.38-1.48-1.25
	c-0.07-0.42-0.07-1.52-0.07-3.19c0-1.67,0-2.77,0.07-3.19c0.13-0.86,0.66-1.24,1.48-1.24c0.82,0,1.35,0.38,1.48,1.24
	c0.06,0.42,0.07,1.52,0.07,3.19C79.71,97.28,79.71,98.37,79.65,98.79 M78.17,88.96c-2.58,0-3.5,1.58-3.73,3.08
	c-0.11,0.73-0.11,1.94-0.11,3.57c0,1.62,0,2.83,0.11,3.56c0.23,1.51,1.15,3.09,3.73,3.09c2.58,0,3.5-1.58,3.73-3.09
	c0.11-0.73,0.11-1.94,0.11-3.56c0-1.62,0.01-2.83-0.11-3.57C81.67,90.54,80.75,88.96,78.17,88.96 M71.85,92.44
	c0-2.57-2.07-3.52-3.78-3.48c-1.7,0.04-3.67,1.02-3.67,4.08h2.24c0-1.35,0.59-1.9,1.45-1.94c0.88-0.04,1.48,0.5,1.48,1.43
	c0,1.2-1.33,2.62-5.07,7.38v2.08h7.16v-2.15h-4.33c1.65-2.1,2.96-3.75,3.78-5.05C71.61,93.98,71.85,93.21,71.85,92.44 M84.54,90.99
	v1.73h1.6v9.27h2.29V89.24h-1.83C86.41,90.34,85.71,90.86,84.54,90.99 M99.5,97.37c-0.13-0.85-0.61-1.66-1.55-2.16
	c0.78-0.55,1.17-1.37,1.29-2.14c0.05-0.36,0.05-0.83,0-1.18c-0.23-1.51-1.24-2.94-3.6-2.94c-2.36,0-3.37,1.43-3.6,2.94
	c-0.05,0.36-0.05,0.83,0,1.18c0.12,0.77,0.51,1.59,1.29,2.14c-0.94,0.5-1.42,1.31-1.55,2.16c-0.09,0.58-0.09,1.22,0,1.8
	c0.23,1.51,1.28,3.09,3.86,3.09c2.59,0,3.64-1.58,3.87-3.09C99.59,98.6,99.59,97.95,99.5,97.37 M94.29,92.33
	c0.11-0.73,0.53-1.24,1.35-1.24c0.82,0,1.24,0.51,1.35,1.24c0.02,0.11,0.02,0.5,0,0.61c-0.13,0.86-0.56,1.31-1.35,1.31
	c-0.79,0-1.22-0.45-1.35-1.31C94.27,92.83,94.27,92.44,94.29,92.33 M97.25,98.8c-0.12,0.82-0.73,1.33-1.61,1.33
	c-0.88,0-1.49-0.51-1.61-1.33c-0.05-0.32-0.05-0.8,0-1.12c0.13-0.86,0.79-1.36,1.61-1.36c0.82,0,1.48,0.5,1.61,1.36
	C97.29,98,97.29,98.48,97.25,98.8"/>
</svg>
