<?xml version="1.0" encoding="utf-8"?>
<!-- Generator: Adobe Illustrator 22.1.0, SVG Export Plug-In . SVG Version: 6.00 Build 0)  -->
<svg version="1.1" id="图层_1" xmlns="http://www.w3.org/2000/svg" xmlns:xlink="http://www.w3.org/1999/xlink" x="0px" y="0px"
	 viewBox="0 0 163 106" style="enable-background:new 0 0 163 106;" xml:space="preserve">
<style type="text/css">
	.st0{fill:#FFFFFF;}
	.st1{fill:#E20413;}
	.st2{fill:url(#SVGID_1_);}
	.st3{fill:url(#SVGID_2_);}
	.st4{fill:url(#SVGID_3_);}
	.st5{fill:url(#SVGID_4_);}
	.st6{fill:url(#SVGID_5_);}
</style>
<g>
	<path class="st0" d="M5,75.9h1.7v1.9h0c0.3-0.7,1-2.1,2.8-2.1v1.9c-1.6,0-2.9,0.8-2.9,3.6v3.9H5V75.9z"/>
	<path class="st0" d="M17.6,85c-0.8,0.2-1.3,0.3-2.3,0.3c-2.8,0-4.6-1.6-4.6-5.3c0-3.9,2.6-4.4,3.7-4.4c2.2,0,3.3,1.5,3.3,3.7v0.4
		h-5.3c0,1.7,0.9,4.1,3.4,4.1c0.8,0,1.3-0.2,1.7-0.3V85z M16.1,78.6c0-0.6-0.3-1.6-1.7-1.6c-1.4,0-1.8,1.2-1.8,1.6H16.1z"/>
	<path class="st0" d="M25,83.6L25,83.6c-0.2,0.5-1,1.6-2.6,1.6c-2.2,0-3.1-2-3.1-4.7c0-3,1.2-5,3.2-5c1.5,0,2.2,0.9,2.5,1.5h0v-5.4
		h1.7v13.3H25V83.6z M23,83.9c1.4,0,2-2,2-3.5c0-1.6-0.5-3.4-2-3.4c-1.4,0-1.8,1.5-1.8,3.5C21.2,81.8,21.4,83.9,23,83.9z"/>
	<path class="st1" d="M34.5,83.6L34.5,83.6c-0.2,0.5-1,1.6-2.6,1.6c-2.2,0-3.1-2-3.1-4.7c0-3,1.2-5,3.2-5c1.5,0,2.2,0.9,2.5,1.5h0
		v-5.4h1.7v13.3h-1.7V83.6z M32.5,83.9c1.4,0,2-2,2-3.5c0-1.6-0.5-3.4-2-3.4c-1.4,0-1.8,1.5-1.8,3.5C30.7,81.8,30.9,83.9,32.5,83.9z
		"/>
	<path class="st1" d="M38.3,80.5c0-2.9,1.3-4.8,4.1-4.8c2.8,0,4.1,1.9,4.1,4.8c0,2.9-1.3,4.8-4.1,4.8C39.6,85.3,38.3,83.4,38.3,80.5
		z M42.4,83.9c1.9,0,2.1-2,2.1-3.5c0-1.5-0.3-3.5-2.1-3.5c-1.9,0-2.1,2-2.1,3.5C40.3,81.9,40.5,83.9,42.4,83.9z"/>
	<path class="st1" d="M53.5,85.1c-0.4,0.1-0.9,0.1-1.4,0.1c-2.2,0-2.8-1-2.8-2.2v-5.8h-1.6v-1.4h1.6v-2.2l1.7-1.1v3.2h2.5v1.4h-2.5
		v4.9c0,0.8,0.1,1.8,1.5,1.8c0.3,0,0.7-0.1,0.9-0.1V85.1z"/>
	<path class="st0" d="M64.9,83.6L64.9,83.6c-0.2,0.5-1,1.6-2.6,1.6c-2.2,0-3.1-2-3.1-4.7c0-3,1.2-5,3.2-5c1.5,0,2.2,0.9,2.5,1.5h0
		v-5.4h1.7v13.3h-1.7V83.6z M62.9,83.9c1.4,0,2-2,2-3.5c0-1.6-0.5-3.4-2-3.4c-1.4,0-1.8,1.5-1.8,3.5C61.1,81.8,61.3,83.9,62.9,83.9z
		"/>
	<path class="st0" d="M75.6,85c-0.8,0.2-1.3,0.3-2.3,0.3c-2.8,0-4.6-1.6-4.6-5.3c0-3.9,2.6-4.4,3.7-4.4c2.2,0,3.3,1.5,3.3,3.7v0.4
		h-5.3c0,1.7,0.9,4.1,3.4,4.1c0.8,0,1.3-0.2,1.7-0.3V85z M74.1,78.6c0-0.6-0.3-1.6-1.7-1.6c-1.4,0-1.8,1.2-1.8,1.6H74.1z"/>
	<path class="st0" d="M81,79.8c1,0.6,2.1,1.2,2.1,2.7c0,1.9-1.4,2.8-3.5,2.8c-1.3,0-2.1-0.3-2.5-0.4v-1.5c0.2,0.1,1.4,0.5,2.3,0.5
		c0.8,0,1.9-0.2,1.9-1.2c0-0.7-0.8-1.1-1.5-1.5L79,80.7c-0.8-0.5-1.8-1.1-1.8-2.5c0-1.7,1.4-2.6,3.3-2.6c0.9,0,1.6,0.3,2.1,0.3v1.6
		c-0.3-0.1-1.1-0.5-2.1-0.5c-0.8,0-1.5,0.4-1.5,1c0,0.6,0.7,1,1.3,1.4L81,79.8z"/>
	<path class="st0" d="M85,71.7h2.1v2H85V71.7z M85.2,75.9h1.7v9.2h-1.7V75.9z"/>
	<path class="st0" d="M96.7,85.4c0,2.7-1.5,3.8-4.2,3.8c-1.4,0-2.4-0.2-2.8-0.3v-1.8c0.6,0.3,1.5,0.7,2.6,0.7c2.7,0,2.7-1.9,2.7-2.9
		v-1.4h0c-0.2,0.5-0.9,1.6-2.5,1.6c-2.4,0-3.2-2.2-3.2-4.6c0-2.6,0.9-4.8,3.3-4.8c1.5,0,2.2,1,2.4,1.5h0v-1.3h1.7V85.4z M93,83.7
		c1.5,0,2-2,2-3.5c0-1.4-0.5-3.2-2-3.2c-1.5,0-1.8,2-1.8,3.4C91.2,81.6,91.4,83.7,93,83.7z"/>
	<path class="st0" d="M99.5,75.9h1.7v2h0c0.3-0.8,1-2.2,2.9-2.2c2.1,0,2.5,1.9,2.5,3v6.4h-1.7v-5c0-1.7,0-2.6-1.3-2.6
		c-1.4,0-2.4,1.9-2.4,3.8v3.9h-1.7V75.9z"/>
	<path class="st0" d="M119.6,83.9L119.6,83.9c-0.3,0.5-1,1.4-2.4,1.4c-1.7,0-2.6-1-2.6-2.5c0-2.4,2.7-3,5-3v-1.6
		c-0.2-0.9-0.8-1.2-1.4-1.2c-1,0-1.5,0.7-1.5,1.4h-1.8c0-1.5,0.9-2.8,3.4-2.8c3,0,3,2.3,3,3.1v6.3h-1.7V83.9z M119.2,80.9
		c-1.4,0-2.7,0.6-2.7,1.8c0,0.7,0.5,1.2,1,1.2c1.2,0,2.1-1.4,2.1-2.5v-0.5H119.2z"/>
	<path class="st0" d="M123.1,75.9h1.7l1.4,6.7h0l2-6.7h1.3l2,6.7h0l1.4-6.7h1.7l-2.1,9.2h-1.8l-1.9-6.4h0l-1.9,6.4h-1.8L123.1,75.9z
		"/>
	<path class="st0" d="M141.2,83.9L141.2,83.9c-0.3,0.5-1,1.4-2.4,1.4c-1.7,0-2.6-1-2.6-2.5c0-2.4,2.7-3,5-3v-1.6
		c-0.2-0.9-0.8-1.2-1.4-1.2c-1,0-1.5,0.7-1.5,1.4h-1.8c0-1.5,0.9-2.8,3.4-2.8c3,0,3,2.3,3,3.1v6.3h-1.7V83.9z M140.8,80.9
		c-1.4,0-2.7,0.6-2.7,1.8c0,0.7,0.5,1.2,1,1.2c1.2,0,2.1-1.4,2.1-2.5v-0.5H140.8z"/>
	<path class="st0" d="M145.4,75.9h1.7v1.9h0c0.3-0.7,1-2.1,2.8-2.1v1.9c-1.6,0-2.9,0.8-2.9,3.6v3.9h-1.7V75.9z"/>
	<path class="st0" d="M156.5,83.6L156.5,83.6c-0.2,0.5-1,1.6-2.6,1.6c-2.2,0-3.1-2-3.1-4.7c0-3,1.2-5,3.2-5c1.5,0,2.2,0.9,2.5,1.5h0
		v-5.4h1.7v13.3h-1.7V83.6z M154.5,83.9c1.4,0,2-2,2-3.5c0-1.6-0.5-3.4-2-3.4c-1.4,0-1.8,1.5-1.8,3.5
		C152.7,81.8,152.9,83.9,154.5,83.9z"/>
</g>
<g>
	<path class="st0" d="M4.4,94.4h1.4L7,99.9h0l1.7-5.5h1.1l1.7,5.5h0l1.2-5.5h1.4l-1.7,7.6h-1.5l-1.6-5.3h0L7.7,102H6.1L4.4,94.4z"/>
	<path class="st0" d="M16.2,91h1.7v1.6h-1.7V91z M16.4,94.4h1.4v7.6h-1.4V94.4z"/>
	<path class="st0" d="M20.7,94.4h1.4v1.6h0c0.3-0.6,0.9-1.8,2.4-1.8c1.8,0,2,1.6,2,2.5v5.3h-1.4v-4.2c0-1.4,0-2.2-1-2.2
		c-1.2,0-2,1.6-2,3.1v3.2h-1.4V94.4z"/>
	<path class="st0" d="M29.3,94.4h1.4v1.6h0c0.3-0.6,0.9-1.8,2.4-1.8c1.8,0,2,1.6,2,2.5v5.3h-1.4v-4.2c0-1.4,0-2.2-1-2.2
		c-1.2,0-2,1.6-2,3.1v3.2h-1.4V94.4z"/>
	<path class="st0" d="M43,102c-0.6,0.1-1.1,0.3-1.9,0.3c-2.3,0-3.8-1.4-3.8-4.4c0-3.3,2.1-3.6,3.1-3.6c1.9,0,2.8,1.3,2.8,3.1v0.4
		h-4.4c0,1.4,0.7,3.4,2.8,3.4c0.7,0,1.1-0.2,1.4-0.3V102z M41.8,96.7c0-0.5-0.3-1.3-1.4-1.3c-1.2,0-1.5,1-1.5,1.3H41.8z"/>
	<path class="st0" d="M45.3,94.4h1.4V96h0c0.2-0.6,0.8-1.7,2.4-1.7v1.6c-1.3,0-2.4,0.7-2.4,3v3.2h-1.4V94.4z"/>
</g>
<g>
	<radialGradient id="SVGID_1_" cx="43.3543" cy="35.0298" r="17.5368" gradientUnits="userSpaceOnUse">
		<stop  offset="0" style="stop-color:#FFFFFF"/>
		<stop  offset="1" style="stop-color:#E20413"/>
	</radialGradient>
	<path class="st2" d="M49.7,38.3c0.1,0.9-0.2,1.7-0.8,2.9c-0.5,1-1.3,1.7-2.1,2.7c-0.8,1-1.8,1.9-2.9,2.8c-1.1,0.8-2.1,1.7-3.4,2.2
		c-1.3,0.6-2.4,1.2-3.5,1.3c-1.1,0.1-2,0.1-2.8-0.2c-0.8-0.3-1.4-0.7-1.8-1.3c-0.4-0.6-0.6-1.4-0.6-2.3c0-0.9,0.3-1.8,0.8-2.8
		c0.5-1,1.1-1.9,1.9-2.8c0.8-0.9,1.7-1.8,2.7-2.6c1-0.8,2.1-1.5,3.3-2c1.2-0.5,2.3-0.9,3.3-1.1c1-0.2,2-0.2,2.8,0
		c0.8,0.2,1.6,0.5,2.1,1C49.2,36.7,49.6,37.4,49.7,38.3z M45.8,41.8c0-0.4-0.2-0.8-0.4-1c-0.2-0.3-0.6-0.5-1-0.6
		c-0.4-0.1-0.9-0.1-1.4,0c-0.5,0.1-1.1,0.2-1.6,0.5c-0.6,0.3-1.1,0.6-1.6,1c-0.5,0.4-0.9,0.8-1.3,1.3c-0.4,0.4-0.7,0.9-0.9,1.4
		c-0.2,0.5-0.3,0.9-0.3,1.4c0,0.4,0.1,0.8,0.3,1.1c0.2,0.3,0.5,0.5,0.9,0.6c0.4,0.1,0.8,0.1,1.4,0.1c0.5-0.1,1.1-0.2,1.7-0.5
		c0.6-0.3,1.2-0.6,1.7-1c0.5-0.4,1-0.8,1.4-1.3c0.4-0.5,0.7-1,0.9-1.4C45.7,42.7,45.8,42.2,45.8,41.8z"/>
	
		<linearGradient id="SVGID_2_" gradientUnits="userSpaceOnUse" x1="1874.6576" y1="-2135.0752" x2="1874.6576" y2="-2112.2395" gradientTransform="matrix(0.7969 0 0 0.7974 -1479.4844 1707.8423)">
		<stop  offset="0" style="stop-color:#E20413"/>
		<stop  offset="1" style="stop-color:#FFFFFF"/>
	</linearGradient>
	<path class="st3" d="M17.3,7.4c-3.3,2-5.2,3.1-7.6,6.1c-1,1.2-1.5,1.9-2.2,3.2c-0.3,0.7-0.7,1.8-0.7,1.8l-0.2,1.3l-0.3,1.7L6.1,23
		l0,0.5c0-0.1,0-0.3,0-0.4c0-0.1,0-0.3,0.1-0.4c0-0.1,0-0.3,0.1-0.4c0-0.1,0.1-0.3,0.1-0.4c0.4-1.5,1.1-3.1,2.1-4.9
		c1.2-2,2.1-3,3.7-4.5c1.6-1.6,2.7-2.7,4.6-4.2c1.2-0.9,4.1-2.7,5.8-2.9c0.7-0.1-1.6,0.1-2.4,0.5C19,6.4,18.4,6.7,17.3,7.4z"/>
	
		<radialGradient id="SVGID_3_" cx="1893.9492" cy="-2136.238" r="50.713" gradientTransform="matrix(0.7969 0 0 0.7974 -1479.4844 1707.8423)" gradientUnits="userSpaceOnUse">
		<stop  offset="0" style="stop-color:#FFFFFF"/>
		<stop  offset="1" style="stop-color:#E20413"/>
	</radialGradient>
	<path class="st4" d="M41.2,8.7l-1.2-1.3l-1.3-1.2l-0.7-0.5l-1.5-0.6c-0.8-0.3-1.8-0.6-2.9-0.8c-1-0.1-2.7-0.4-4-0.1
		c-1.3,0.3-2.1,0.6-3.6,1.2c-1.4,0.6-2.9,1.4-4.5,2.3c-2.1,1.3-4.2,2.9-6.1,4.5c-1.9,1.7-3.6,3.4-5.1,5.3c-1.5,1.8-2.8,3.7-3.8,5.6
		c-1,1.9-1.4,3.7-1.7,5.5c-0.1,0.3,0,0.7,0,1c0,0.3,0.3,2.3,0.6,3.7c0.1,0.6,0.2,1,0.4,1.6c0.2,0.7,0.7,1.7,0.7,1.7l0.3,0.4L7.3,38
		c-0.2-0.3-0.4-0.7-0.5-1.1c-0.1-0.4-0.2-0.8-0.3-1.2c-0.1-0.4-0.1-0.9-0.1-1.4c0-0.5,0-1,0.1-1.5c0.3-1.8,1-3.8,2-5.8
		c1-2,2.4-4,4-5.9c1.6-1.9,3.4-3.8,5.4-5.5c2-1.7,4.1-3.3,6.4-4.7c1.8-1.1,3.6-2,5.3-2.6c1.7-0.7,3.3-1.1,4.8-1.3
		c1.5-0.2,2.8-0.1,4,0.1C39.4,7.4,40.4,7.9,41.2,8.7"/>
	
		<radialGradient id="SVGID_4_" cx="1902.4738" cy="-2129.9014" r="54.1137" gradientTransform="matrix(0.7969 0 0 0.7974 -1479.4844 1707.8423)" gradientUnits="userSpaceOnUse">
		<stop  offset="0" style="stop-color:#FFFFFF"/>
		<stop  offset="1" style="stop-color:#E20413"/>
	</radialGradient>
	<path class="st5" d="M49.2,18.7l-2.1-5.4L46.6,12c-0.7-1.2-1.9-2-3.2-2.5c-1.3-0.5-3.7-0.5-5.4-0.3c-1.7,0.2-3.6,0.7-5.6,1.5
		c-2,0.8-4.1,1.9-6.2,3.3c-2.4,1.5-4.6,3.3-6.6,5.2c-2,1.9-3.8,4-5.4,6.1c-1.6,2.1-2.9,4.3-3.8,6.4c-1,2.2-1.5,4.3-1.7,6.2
		c0,0.7,0,1.4,0.1,2.1c0.1,0.6,0.3,1.2,0.5,1.8c0.2,0.5,0.5,1,0.9,1.5c0.4,0.4,0.8,0.8,1.2,1.1l1.6,1l1.5,0.8l1.7,0.8l1.5,0.5
		c-0.7-0.2-1.4-0.6-2-1c-0.6-0.4-1-0.9-1.4-1.5c-0.4-0.6-0.7-1.3-0.8-2c-0.2-0.7-0.3-1.6-0.2-2.5c0.1-1.8,0.6-3.8,1.4-5.9
		c0.8-2,2-4,3.5-6c1.4-2,3.1-3.9,5-5.7c1.9-1.8,4-3.4,6.2-4.9c2.2-1.4,4.4-2.5,6.4-3.2c2.1-0.7,4.8-1.2,6.5-1.2
		c1.8,0,3.3,0.4,4.5,1.2c1.2,0.8,1.5,2.2,1.9,3.8L49.2,18.7z"/>
	
		<radialGradient id="SVGID_5_" cx="1909.062" cy="-2116.1091" r="46.1639" gradientTransform="matrix(0.7969 0 0 0.7974 -1479.4844 1707.8423)" gradientUnits="userSpaceOnUse">
		<stop  offset="0" style="stop-color:#FFFFFF"/>
		<stop  offset="1" style="stop-color:#E20413"/>
	</radialGradient>
	<path class="st6" d="M50.8,29.9c0.1-0.4,1-0.7,1.1-1.1c0.1-0.4,0.2-0.8,0.3-1.2c0.1-0.4,0.3-2.7,0.3-3.1c-0.1-0.2-0.1-0.5-0.2-0.7
		c-0.6-1.2-1.2-1.6-2.3-2.3c-1.2-0.8-3.4-1.3-5.1-1.3c-1.7,0-3.6,0.3-5.6,1c-2,0.7-4.1,1.7-6.3,3c-2.2,1.3-4.2,2.9-6,4.6
		c-1.8,1.7-3.4,3.5-4.8,5.4c-1.4,1.9-2.4,3.8-3.2,5.7c-0.8,1.9-1.2,3.8-1.2,5.5c0,1.1,0.2,2,0.5,2.8c0.3,0.8,0.8,1.5,1.5,2.1
		c0.7,0.6,1.4,1,2.4,1.2c1,0.2,1.9,0.4,3.1,0.4l0.3,0l1.8-0.1l1.8-0.2l0.9-0.2l1.6-0.4l1.6-0.4l0.4-0.1l1.4-0.5l0.3-0.1
		c-1.6,0.7-3.2,1.1-4.6,1.2c-1.4,0.1-2.6,0-3.6-0.4c-1-0.4-1.8-1-2.4-1.8c-0.6-0.8-0.9-1.8-1-3c-0.1-1.4,0.2-2.8,0.8-4.4
		c0.6-1.5,1.4-3.1,2.5-4.6c1.1-1.5,2.4-3,3.8-4.3c1.4-1.4,3.1-2.6,4.8-3.7c1.7-1.1,3.5-1.8,5.1-2.3c1.6-0.5,3.1-0.7,4.5-0.7
		c1.4,0.1,2.5,0.4,3.5,1.1C49.9,27.6,50.5,28.6,50.8,29.9"/>
	<path class="st1" d="M31,7.1c-0.2,0.8-0.8,1.6-1.5,2.4c-0.8,0.9-1.8,1.7-2.9,2.5c-1.2,0.8-2.5,1.6-3.9,2.3
		c-1.4,0.7-2.9,1.2-4.4,1.7c-1.5,0.4-2.8,0.6-4,0.7c-1.1,0-2.1-0.1-2.8-0.4c-0.7-0.3-1.2-0.7-1.4-1.3c-0.2-0.5-0.1-1.2,0.2-2
		c0.1-0.2,0.2-0.5,0.4-0.7c0.2-0.2,0.3-0.5,0.5-0.7c0.2-0.2,0.4-0.5,0.6-0.7c0.2-0.2,0.5-0.5,0.7-0.7l0.7-0.6L13.9,9l0.7-0.5L15.3,8
		l0.7-0.4l0.6-0.4l0.6-0.4c0,0-1.3,1-1.9,1.8c-0.4,0.4-0.6,0.8-0.8,1.2c-0.2,0.4-0.2,0.7-0.1,1c0.1,0.3,0.4,0.5,0.7,0.6
		c0.4,0.1,0.8,0.2,1.4,0.1c0.6,0,1.2-0.2,2-0.4c0.7-0.2,1.5-0.5,2.1-0.8c0.7-0.3,1.3-0.7,1.9-1.1C23.1,8.8,23.6,8.4,24,8
		c0.4-0.4,0.7-0.8,0.8-1.2c0.1-0.4,0.1-0.7,0-0.9c-0.1-0.2-0.4-0.4-0.8-0.5c-0.4-0.1-0.8-0.1-1.4,0c-0.5,0.1-1.2,0.1-1.9,0.4
		C20.2,5.9,20,6,19.5,6.2c1.3-0.7,2.1-1,3.5-1.5c0.9-0.3,1.5-0.5,2.4-0.6c1-0.2,1.8-0.2,2.6-0.1c0.8,0.1,1.4,0.2,1.9,0.5
		c0.5,0.3,0.9,0.6,1,1C31.1,5.9,31.2,6.5,31,7.1z"/>
	<path class="st1" d="M49.4,40c0,0-0.3,0.9-0.6,1.4c-0.3,0.5-0.8,1.2-0.8,1.2s-0.2,0.2-0.3,0.4c-0.3,0.4-0.9,1.1-0.9,1.1l-0.7,0.8
		c-0.8,0.8-1.6,1.5-2.6,2.3c-1,0.7-2,1.4-3.1,2c-1.1,0.6-2.3,1.1-3.5,1.6c-1.2,0.5-2.4,0.8-3.7,1.1c-0.2,0.1-0.5,0.1-0.7,0.1
		c-0.2,0-0.5,0.1-0.7,0.1c-0.2,0-0.5,0.1-0.7,0.1c-0.2,0-0.5,0-0.7,0.1l-1.4,0.1l-0.3,0l-1.5,0L25.8,52c0,0-0.3,0-0.4-0.1
		c-0.6-0.1-1-0.1-1.6-0.3c-0.6-0.1-1.6-0.4-1.6-0.4l-0.8-0.3L21.3,51c0.6,0.2,1.3,0.4,2,0.5c0.7,0.1,1.5,0.2,2.3,0.2
		c0.8,0,1.7,0,2.6-0.1c0.9-0.1,1.9-0.2,2.9-0.5c2.3-0.5,4.5-1.2,6.6-2.2c2.1-0.9,4.1-2.1,5.9-3.4c1.8-1.3,3.3-2.6,4.6-4.1
		C48.7,41,49.1,40.5,49.4,40C49.5,40,49.4,40,49.4,40z"/>
	<path class="st1" d="M36.4,5.2L38,5.8l1.6,0.7l0.6,0.3C40.6,7,41,7.3,41.3,7.6c0.3,0.3,0.6,0.7,0.8,1c0.2,0.4,0.3,0.8,0.4,1.3
		c0.1,0.5,0,1-0.1,1.5c-0.3,1.4-1.1,3-2.4,4.5c-1.3,1.6-3.1,3.2-5.1,4.7c-2.1,1.5-4.5,3-7.1,4.2c-2.6,1.2-5.3,2.3-8.1,3
		c-2.5,0.6-4.7,1-6.6,1c-1.9,0-3.5-0.2-4.8-0.6c-1.2-0.5-2.2-1.1-2.7-2c-0.5-0.9-0.7-1.9-0.4-3.1l0.1-0.5l0.5-1.7l0.6-1.6l0.6-1.4
		l0.5-1.1L7.3,17c0,0,0,0,0,0c-0.5,1.1-0.6,2.1-0.3,2.9c0.3,0.8,0.9,1.5,1.9,1.9c1,0.4,2.4,0.7,4,0.6c1.7,0,3.6-0.3,5.8-0.9
		c2.2-0.6,4.4-1.4,6.4-2.4c2.1-1,4-2.1,5.7-3.3c1.7-1.2,3.1-2.5,4.2-3.7c1.1-1.2,1.8-2.4,2.1-3.6c0.1-0.6,0.2-1.1,0.1-1.6
		c-0.1-0.5-0.3-0.9-0.6-1.2c-0.3-0.4-0.7-0.7-1.2-0.9c-0.3-0.2-0.7-0.3-1.1-0.4l-0.6-0.2c0.3,0,0.4,0.1,0.6,0.1c0,0,0.6,0.1,0.9,0.2
		C35.6,4.9,36.4,5.2,36.4,5.2z"/>
	<path class="st1" d="M47,12.2l1.2,1.5l1.1,1.6l0.5,0.8c0.1,0.3,0.3,0.5,0.4,0.8c0.1,0.3,0.2,0.6,0.2,0.9c0.1,0.3,0.1,0.6,0.1,0.9
		c0,0.3,0,0.7-0.1,1c-0.2,1.8-1.1,3.8-2.6,5.8c-1.5,2-3.5,4-6,5.9c-2.5,1.9-5.4,3.7-8.5,5.2c-3.1,1.5-6.4,2.7-9.8,3.5
		c-2.4,0.6-4.6,0.9-6.6,0.9c-2,0.1-3.7-0.1-5.2-0.4c-1.5-0.3-2.7-0.9-3.6-1.6c-0.9-0.7-1.6-1.5-2-2.5l-0.4-1.1l-0.5-1.8l-0.4-1.9
		l-0.1-0.5l-0.1-1c0-0.1,0,0,0,0c0.1,1,0.5,1.9,1.2,2.6c0.8,0.8,1.9,1.4,3.3,1.9c1.4,0.4,3.2,0.6,5.2,0.6c2-0.1,4.3-0.4,6.8-1
		c3.1-0.8,6.3-1.9,9.2-3.3c3-1.4,5.7-3.1,8.1-4.8c2.3-1.8,4.3-3.6,5.7-5.5c1.4-1.8,2.3-3.6,2.6-5.3c0.1-0.5,0.1-0.9,0.1-1.3
		c0-0.4-0.1-0.8-0.2-1.2c-0.1-0.4-0.3-0.7-0.5-1c-0.1-0.2-0.3-0.4-0.4-0.6v0l1,1L47,12.2z"/>
	<path class="st1" d="M52.8,26.1c0.1,1.5,0.2,2.4-0.1,3.9c-0.4,2.3-1,3.7-2.3,5.5c-1.3,1.9-3.1,3.8-5.3,5.6
		c-2.2,1.8-4.8,3.4-7.6,4.7c-2.8,1.3-5.8,2.4-8.8,3.1c-1.6,0.3-3.1,0.6-4.5,0.7c-1.4,0.1-2.7,0.1-3.9,0c-1.2-0.1-2.2-0.4-3.2-0.7
		c-0.9-0.3-1.8-0.7-2.5-1.2l-1.5-1.1L12,45.4c0,0-0.8-0.8-1.3-1.4c-0.3-0.4-0.8-1.1-0.8-1.1c-0.1-0.1,0,0,0,0
		c0.6,0.6,1.3,1.2,2.1,1.7c1,0.5,2.2,0.9,3.6,1.2c1.4,0.2,3,0.3,4.8,0.3c1.8-0.1,3.7-0.3,5.7-0.8c3.3-0.7,6.6-1.9,9.6-3.4
		c3.1-1.5,5.9-3.2,8.3-5.1c2.4-1.9,4.4-3.9,5.8-5.9c1.4-2,2.3-4,2.5-5.8c0-0.2,0-0.4,0-0.6c0-0.2,0-0.4,0-0.6c0-0.2,0.2,0.8,0.2,0.8
		S52.8,25.5,52.8,26.1z"/>
</g>
<g>
	<path class="st0" d="M55.7,100.9c0.2-0.2,0.5-0.4,0.8-0.7c0.3-0.3,0.7-0.6,1-1c0.4-0.4,0.7-0.8,1.1-1.2c0.4-0.4,0.7-0.8,1-1.2
		c0.3-0.4,0.5-0.8,0.7-1.2c0.2-0.4,0.3-0.8,0.3-1.1c0-0.4-0.1-0.8-0.4-1.1c-0.2-0.3-0.6-0.4-1.2-0.4c-0.5,0-0.9,0.1-1.2,0.4
		c-0.2,0.3-0.4,0.6-0.4,1h-1.8c0-0.3,0.1-0.5,0.2-0.8c0.1-0.3,0.3-0.6,0.5-0.8c0.2-0.2,0.6-0.5,1-0.6c0.4-0.2,0.9-0.2,1.6-0.2
		c0.4,0,0.8,0.1,1.2,0.2c0.4,0.1,0.7,0.3,1,0.5c0.3,0.2,0.5,0.5,0.7,0.9c0.2,0.3,0.2,0.7,0.2,1.2c0,0.7-0.2,1.4-0.5,2
		c-0.3,0.6-0.7,1.2-1.2,1.7c-0.5,0.5-0.9,1-1.5,1.5c-0.5,0.4-1,0.9-1.4,1.2h4.6v1.1h-6.5V100.9z"/>
	<path class="st0" d="M67.7,102.2c-0.7,0-1.3-0.1-1.8-0.4c-0.5-0.3-0.9-0.7-1.1-1.2c-0.3-0.5-0.5-1-0.6-1.7C64.1,98.3,64,97.6,64,97
		c0-0.7,0.1-1.3,0.2-1.9c0.1-0.6,0.3-1.2,0.6-1.7c0.3-0.5,0.7-0.9,1.1-1.2c0.5-0.3,1.1-0.4,1.8-0.4s1.3,0.1,1.8,0.4
		c0.5,0.3,0.9,0.7,1.1,1.2c0.3,0.5,0.5,1,0.6,1.7c0.1,0.6,0.2,1.3,0.2,1.9c0,0.7-0.1,1.3-0.2,1.9c-0.1,0.6-0.3,1.2-0.6,1.7
		c-0.3,0.5-0.7,0.9-1.1,1.2C69.1,102,68.4,102.2,67.7,102.2z M65.6,97c0,0.5,0,0.9,0.1,1.4c0,0.5,0.1,0.9,0.3,1.3
		c0.1,0.4,0.4,0.7,0.6,1c0.3,0.3,0.6,0.4,1.1,0.4c0.5,0,0.8-0.1,1.1-0.4c0.3-0.2,0.5-0.6,0.6-1c0.1-0.4,0.2-0.8,0.3-1.3
		c0-0.5,0.1-1,0.1-1.4c0-0.5,0-0.9-0.1-1.4c0-0.5-0.1-0.9-0.3-1.3c-0.1-0.4-0.4-0.7-0.6-1c-0.3-0.3-0.6-0.4-1.1-0.4
		c-0.5,0-0.8,0.1-1.1,0.4c-0.3,0.3-0.5,0.6-0.6,1c-0.1,0.4-0.2,0.8-0.3,1.3C65.6,96,65.6,96.5,65.6,97z"/>
	<path class="st0" d="M76,93.3l-2,1.2v-1.4l2.3-1.3h1.3V102H76V93.3z"/>
	<path class="st0" d="M84.9,102.2c-1.2,0-2.1-0.3-2.6-0.8c-0.5-0.5-0.8-1.2-0.8-2.1c0-0.4,0.1-0.8,0.2-1.1c0.1-0.3,0.3-0.5,0.4-0.7
		c0.2-0.2,0.4-0.3,0.6-0.4c0.2-0.1,0.4-0.2,0.6-0.2v0c-0.1,0-0.3-0.1-0.5-0.2c-0.2-0.1-0.4-0.2-0.5-0.4c-0.2-0.2-0.3-0.4-0.4-0.7
		c-0.1-0.3-0.2-0.6-0.2-1.1c0-0.5,0.1-0.8,0.2-1.2c0.2-0.3,0.4-0.6,0.7-0.8c0.3-0.2,0.6-0.4,1-0.5c0.4-0.1,0.8-0.2,1.3-0.2
		c0.4,0,0.9,0.1,1.3,0.2c0.4,0.1,0.7,0.3,1,0.5c0.3,0.2,0.5,0.5,0.7,0.8c0.2,0.3,0.2,0.7,0.2,1.2c0,0.4-0.1,0.8-0.2,1.1
		c-0.1,0.3-0.2,0.5-0.4,0.7c-0.2,0.2-0.3,0.3-0.5,0.4c-0.2,0.1-0.4,0.2-0.5,0.2v0c0.2,0.1,0.4,0.1,0.6,0.2c0.2,0.1,0.4,0.3,0.6,0.4
		c0.2,0.2,0.3,0.4,0.5,0.7c0.1,0.3,0.2,0.7,0.2,1.1c0,0.4-0.1,0.8-0.2,1.2c-0.1,0.4-0.3,0.7-0.6,0.9c-0.3,0.3-0.6,0.4-1,0.6
		C86,102.1,85.5,102.2,84.9,102.2z M83.1,99.2c0,0.6,0.1,1.1,0.4,1.4c0.3,0.3,0.7,0.5,1.3,0.5c0.6,0,1.1-0.2,1.3-0.5
		c0.3-0.3,0.4-0.8,0.4-1.4c0-0.6-0.1-1-0.4-1.4c-0.3-0.4-0.7-0.5-1.4-0.5c-0.6,0-1,0.2-1.3,0.5C83.2,98.1,83.1,98.6,83.1,99.2z
		 M83.3,94.5c0,0.6,0.1,1,0.4,1.3c0.3,0.3,0.7,0.4,1.2,0.4c1.1,0,1.6-0.6,1.6-1.7c0-0.5-0.1-0.9-0.4-1.2c-0.3-0.3-0.7-0.4-1.2-0.4
		c-0.5,0-0.9,0.1-1.2,0.4C83.4,93.6,83.3,94,83.3,94.5z"/>
</g>
</svg>
