<?xml version="1.0" encoding="utf-8"?>
<!-- Generator: Adobe Illustrator 20.0.0, SVG Export Plug-In . SVG Version: 6.00 Build 0)  -->
<svg version="1.1" id="Layer_1" xmlns="http://www.w3.org/2000/svg" xmlns:xlink="http://www.w3.org/1999/xlink" x="0px" y="0px"
	 viewBox="0 0 40 40" style="enable-background:new 0 0 40 40;" xml:space="preserve">
<style type="text/css">
	.st0{fill:none;stroke:#f8c814;stroke-width:2;stroke-linecap:round;stroke-linejoin:round;stroke-miterlimit:10;}
</style>
<path class="st0" d="M2.6,26.7L6.9,17c0.2-0.5,1-0.5,1.1,0.1c0.5,2,1.7,5,4.1,5c3.9,0,6.5-3.8,8.2-2.2c1.5,1.5,3.7,10.5,8,10.5
	s3.8,5.2,3.8,5.2c-11.5,0-10.3-1.1-15.5-3.1C13.2,31.1,8.4,32.5,2.6,26.7z"/>
<path class="st0" d="M32.1,35.5v0.9c0,1.3-1,2.4-2.3,2.5c-5.2,0.4-17.9,0.2-28.1-8.6C1.3,30,1.2,29.4,1.4,29l1.2-2.3"/>
<line class="st0" x1="18.2" y1="24" x2="21.2" y2="22.7"/>
<line class="st0" x1="20.3" y1="27" x2="23" y2="25.6"/>
<line class="st0" x1="22.3" y1="29.8" x2="24.7" y2="28.5"/>
<path class="st0" d="M47.3,36.1"/>
<circle class="st0" cx="36" cy="4" r="3"/>
<circle class="st0" cx="15" cy="8" r="3"/>
<circle class="st0" cx="4" cy="8" r="3"/>
<circle class="st0" cx="26" cy="14" r="3"/>
<line class="st0" x1="28.1" y1="11.9" x2="33.9" y2="6.1"/>
<line class="st0" x1="17.8" y1="9.1" x2="23.4" y2="12.5"/>
<line class="st0" x1="7" y1="8" x2="12" y2="8"/>
</svg>
