<?xml version="1.0" encoding="utf-8"?>
<!-- Generator: Adobe Illustrator 20.0.0, SVG Export Plug-In . SVG Version: 6.00 Build 0)  -->
<svg version="1.1" id="Layer_1" xmlns="http://www.w3.org/2000/svg" xmlns:xlink="http://www.w3.org/1999/xlink" x="0px" y="0px"
	 viewBox="0 0 40 40" style="enable-background:new 0 0 40 40;" xml:space="preserve">
<style type="text/css">
	.st0{fill:none;stroke:#f8c814;stroke-width:2;stroke-linecap:round;stroke-linejoin:round;}
</style>
<title>AF-icons-1c</title>
<line class="st0" x1="20" y1="29.8" x2="20" y2="11"/>
<polyline class="st0" points="16,24.4 24.1,15.7 20,11 "/>
<polyline class="st0" points="20,29.8 24.1,25.1 16,16.4 "/>
<path class="st0" d="M9,1h3c1.7,0,3,1.3,3,3l0,0c0,1.7-1.3,3-3,3H9l0,0V1L9,1z"/>
<rect x="3" y="2" class="st0" width="6" height="4"/>
<path class="st0" d="M31,7h-3c-1.7,0-3-1.3-3-3l0,0c0-1.7,1.3-3,3-3h3l0,0V7L31,7z"/>
<rect x="31" y="2" class="st0" width="6" height="4"/>
<path class="st0" d="M4,6v21c0,6.6,5.4,12,12,12h8c6.6,0,12-5.4,12-12V6"/>
</svg>
