<?xml version="1.0" encoding="utf-8"?>
<!-- Generator: Adobe Illustrator 20.0.0, SVG Export Plug-In . SVG Version: 6.00 Build 0)  -->
<svg version="1.1" id="Layer_1" xmlns="http://www.w3.org/2000/svg" xmlns:xlink="http://www.w3.org/1999/xlink" x="0px" y="0px"
	 viewBox="0 0 40 40" style="enable-background:new 0 0 40 40;" xml:space="preserve">
<style type="text/css">
	.st0{fill:none;stroke:#f8c814;stroke-width:2;stroke-linecap:round;stroke-linejoin:round;}
</style>
<title>AF-icons-1c</title>
<circle class="st0" cx="13" cy="13" r="3"/>
<path class="st0" d="M25,13c0-6.6-5.4-12-12-12S1,6.4,1,13c0,2,0.5,4,1.5,5.7l0,0C7.9,27.9,13,39,13,39s5.1-11.1,10.5-20.2l0,0
	C24.5,17,25,15,25,13z"/>
<path class="st0" d="M19.1,35c1.2,2.4,1.9,4,1.9,4s5.1-11.1,10.5-20.2l0,0c3.2-5.8,1-13.1-4.8-16.3c-1.2-0.6-2.4-1.1-3.8-1.3"/>
</svg>
