<?xml version="1.0" encoding="utf-8"?>
<!-- Generator: Adobe Illustrator 20.0.0, SVG Export Plug-In . SVG Version: 6.00 Build 0)  -->
<svg version="1.1" id="Layer_1" xmlns="http://www.w3.org/2000/svg" xmlns:xlink="http://www.w3.org/1999/xlink" x="0px" y="0px"
	 viewBox="0 0 40 40" style="enable-background:new 0 0 40 40;" xml:space="preserve">
<style type="text/css">
	.st0{fill:none;stroke:#f8c814;stroke-width:2;stroke-linecap:round;stroke-linejoin:round;}
</style>
<title>AF-icons-1d</title>
<path class="st0" d="M28,7c-2.8-0.7-5.7,0-8,1.7c-4-3.2-9.9-2.6-13.1,1.4c-3,3.7-2.7,9.2,0.7,12.5L8,23"/>
<path class="st0" d="M15,30l4.3,4.3c0.4,0.4,1,0.4,1.4,0l11.6-11.6c2.5-2.5,3.4-6.3,2.2-9.6"/>
<line class="st0" x1="15" y1="30" x2="15" y2="30"/>
<polyline class="st0" points="39,1 30,11.7 26.3,16 23,16 20,23 17,14 13.6,24 1,39 "/>
</svg>
