<?xml version="1.0" encoding="utf-8"?>
<!-- Generator: Adobe Illustrator 20.0.0, SVG Export Plug-In . SVG Version: 6.00 Build 0)  -->
<svg version="1.1" id="Layer_1" xmlns="http://www.w3.org/2000/svg" xmlns:xlink="http://www.w3.org/1999/xlink" x="0px" y="0px"
	 viewBox="0 0 40 40" style="enable-background:new 0 0 40 40;" xml:space="preserve">
<style type="text/css">
	.st0{fill:none;stroke:#f8c814;stroke-width:2;stroke-linecap:round;stroke-linejoin:round;}
</style>
<title>AF-icons-1d</title>
<polyline class="st0" points="27,16 30,16 30,1 10,1 10,16 14,16 "/>
<path class="st0" d="M23,25.1v-9.6c0-1.4-1.1-2.5-2.5-2.5l0,0c-1.4,0-2.5,1.1-2.5,2.5v16.4l-3-3c-1-1-2.6-1-3.5,0c0,0,0,0,0,0l0,0
	c-1,1-1,2.6,0,3.5c0,0,0,0,0,0L18,39h14V27c0-1.1-0.9-1.9-1.9-1.9l0,0H23z"/>
<polyline class="st0" points="14,12 16,9 24,9 26,5 "/>
</svg>
