<?xml version="1.0" encoding="utf-8"?>
<!-- Generator: Adobe Illustrator 20.0.0, SVG Export Plug-In . SVG Version: 6.00 Build 0)  -->
<svg version="1.1" id="Layer_1" xmlns="http://www.w3.org/2000/svg" xmlns:xlink="http://www.w3.org/1999/xlink" x="0px" y="0px"
	 viewBox="0 0 40 40" style="enable-background:new 0 0 40 40;" xml:space="preserve">
<style type="text/css">
	.st0{fill:none;stroke:#f8c814;stroke-width:2;stroke-linecap:round;stroke-linejoin:round;stroke-miterlimit:10;}
	.st1{fill:none;stroke:#f8c814;stroke-width:2;stroke-miterlimit:10;}
</style>
<g>
	<polyline class="st0" points="26,28 32,28 32,12 25,12 	"/>
	<path class="st0" d="M10.8,22.8"/>
	<polyline class="st0" points="11,12 4,12 4,28 13,28 	"/>
	<path class="st0" d="M16,13.8"/>
	<path class="st0" d="M16,13.8"/>
	<path class="st0" d="M10.8,22.8"/>
</g>
<rect x="32" y="16" class="st0" width="4" height="8"/>
<path class="st1" d="M23.9,1.7L19,17.1h8L15.9,38.8c-0.1,0.2-0.4,0.3-0.6,0.2S15,38.7,15,38.5l4.1-15.4h-6.8c-0.7,0-1.2-0.6-1.2-1.2
	c0-0.2,0.1-0.4,0.2-0.6L23,1.3c0.1-0.2,0.4-0.3,0.7-0.2C23.9,1.3,23.9,1.5,23.9,1.7z"/>
</svg>
