<?xml version="1.0" encoding="utf-8"?>
<!-- Generator: Adobe Illustrator 20.0.0, SVG Export Plug-In . SVG Version: 6.00 Build 0)  -->
<svg version="1.1" id="Layer_1" xmlns="http://www.w3.org/2000/svg" xmlns:xlink="http://www.w3.org/1999/xlink" x="0px" y="0px"
	 viewBox="0 0 40 40" style="enable-background:new 0 0 40 40;" xml:space="preserve">
<style type="text/css">
	.st0{fill:none;stroke:#f8c814;stroke-width:2;stroke-linecap:round;stroke-linejoin:round;}
</style>
<title>AF-icons-1d</title>
<path class="st0" d="M37.3,21.9c0.2-1.8,1.4-3.6,1-5.4s-2.1-3.1-2.9-4.7s-0.9-3.8-2.2-5.1s-3.5-1.4-5.1-2.2s-2.9-2.6-4.7-2.9
	s-3.6,0.8-5.4,1"/>
<path class="st0" d="M32.4,17.9c-0.2-1.2-1.8-2-2.4-3.1s-0.3-2.8-1.2-3.7s-2.6-0.6-3.6-1.2s-1.8-2.1-3-2.4"/>
<path class="st0" d="M14.4,25.4c-2.1-2.1-3.9-4.5-5.3-7.1c-0.5-0.9-0.2-2.1,0.6-2.7l0.6-0.5c1.3-1,1.7-2.8,0.9-4.2L9.6,8
	C8.7,6.4,6.7,5.8,5.1,6.7C5,6.7,5,6.8,4.9,6.8L2.8,8.1c-1.5,0.9-2.2,2.8-1.7,4.4c2,6.1,5.4,11.6,9.9,16c4.4,4.6,9.9,8,16,9.9
	c1.7,0.5,3.5-0.2,4.5-1.7l1.3-2.1c1-1.5,0.5-3.6-1.1-4.6c0,0-0.1-0.1-0.1-0.1l-2.8-1.6c-1.4-0.8-3.2-0.4-4.2,0.9L24.2,30
	c-0.6,0.8-1.8,1.1-2.7,0.6C18.8,29.2,16.4,27.4,14.4,25.4"/>
</svg>
