<?xml version="1.0" encoding="utf-8"?>
<!-- Generator: Adobe Illustrator 20.0.0, SVG Export Plug-In . SVG Version: 6.00 Build 0)  -->
<svg version="1.1" id="Layer_1" xmlns="http://www.w3.org/2000/svg" xmlns:xlink="http://www.w3.org/1999/xlink" x="0px" y="0px"
	 viewBox="0 0 40 40" style="enable-background:new 0 0 40 40;" xml:space="preserve">
<style type="text/css">
	.st0{fill:none;stroke:#f8c814;stroke-width:2;stroke-linecap:round;stroke-miterlimit:10;}
	.st1{fill:none;stroke:#f8c814;stroke-width:2;stroke-linecap:round;stroke-linejoin:round;stroke-miterlimit:10;}
</style>
<title>AF-icons-1d</title>
<path class="st0" d="M10.3,22c2.9,0,2.9-4,5.7-4c2.9,0,2.9,4,5.7,4c2.9,0,2.9-4,5.7-4c2.9,0,2.9,4,5.7,4s2.9-4,5.7-4"/>
<path class="st0" d="M10.3,22c2.9,0,2.9-4,5.7-4c2.9,0,2.9,4,5.7,4c2.9,0,2.9-4,5.7-4c2.9,0,2.9,4,5.7,4s2.9-4,5.7-4"/>
<g>
	<path class="st1" d="M17,14c1.5-4.6,4.8-8.4,9-10.7c0.6-0.3,0.5-1.2-0.1-1.4c-2.7-0.9-5.6-1.2-8.6-0.7C8.8,2.4,2,9.4,1.1,17.9
		C-0.1,29.3,8.8,39,20,39c2,0,4-0.3,5.9-0.9c0.6-0.2,0.7-1.1,0.1-1.4c-5-2.7-8.7-7.6-9.7-13.5"/>
	<path class="st1" d="M17,14"/>
</g>
</svg>
