<?xml version="1.0" encoding="UTF-8" standalone="no"?>
<!-- Generator: Adobe Illustrator 16.0.0, SVG Export Plug-In . SVG Version: 6.00 Build 0)  -->
<!DOCTYPE svg  PUBLIC '-//W3C//DTD SVG 1.1//EN'  'http://www.w3.org/Graphics/SVG/1.1/DTD/svg11.dtd'>
<svg id="Layer_1" style="enable-background:new 0 0 15.995 13.004" xmlns="http://www.w3.org/2000/svg" xml:space="preserve" height="13.004px" viewBox="0 0 15.995 13.004" width="15.995px" version="1.1" y="0px" x="0px" xmlns:xlink="http://www.w3.org/1999/xlink" fill="#fff">
<g id="Twitter_1">
	<path d="m15.995 1.539c-0.589 0.262-1.221 0.438-1.885 0.518 0.678-0.406 1.197-1.049 1.443-1.816-0.635 0.377-1.338 0.65-2.085 0.797-0.598-0.64-1.452-1.038-2.395-1.038-1.814 0-3.283 1.471-3.283 3.283 0 0.258 0.029 0.508 0.085 0.748-2.728-0.137-5.147-1.443-6.767-3.43-0.281 0.485-0.443 1.049-0.443 1.651 0 1.139 0.758 2.143 1.639 2.732-0.539-0.017-1.309-0.166-1.309-0.412v0.043c0 1.59 0.953 2.916 2.454 3.219-0.276 0.074-0.654 0.115-0.954 0.115-0.212 0-0.461-0.021-0.663-0.061 0.418 1.305 1.608 2.254 3.044 2.281-1.123 0.879-2.55 1.404-4.087 1.404-0.266 0-0.532-0.016-0.789-0.045 1.453 0.93 3.175 1.475 5.029 1.475 6.039 0 9.338-5.002 9.338-9.34 0-0.143-0.004-0.285-0.011-0.426 0.643-0.462 1.199-1.04 1.639-1.698z"/>
</g>
</svg>
