<?xml version="1.0" encoding="utf-8"?>
<!-- Generator: Adobe Illustrator 20.0.0, SVG Export Plug-In . SVG Version: 6.00 Build 0)  -->
<svg version="1.1" id="Layer_1" xmlns="http://www.w3.org/2000/svg" xmlns:xlink="http://www.w3.org/1999/xlink" x="0px" y="0px"
	 viewBox="0 0 40 40" style="enable-background:new 0 0 40 40;" xml:space="preserve">
<style type="text/css">
	.st0{fill:none;stroke:#f8c814;stroke-width:2;stroke-linecap:round;stroke-linejoin:round;stroke-miterlimit:10;}
</style>
<title>AF-icons-1d</title>
<path class="st0" d="M14.9,15.2C16.2,13.9,18,13,20,13c3.9,0,7,3.1,7,7"/>
<path class="st0" d="M14.9,15.2"/>
<polyline class="st0" points="24.6,19.7 27,21 29.4,19.7 "/>
<g>
	<path class="st0" d="M25,24.7c-1.3,1.4-3.1,2.2-5.1,2.2c-3.9,0-7-3.1-7-7"/>
	<polyline class="st0" points="15.3,20.3 12.9,19 10.5,20.3 	"/>
</g>
<path class="st0" d="M6,7.2C9.5,3.4,14.5,1,20,1s10.5,2.4,14,6.2"/>
<path class="st0" d="M12,9.8C14.2,8,17,7,20,7s5.8,1,8,2.8"/>
<path class="st0" d="M6,32.8c3.5,3.8,8.5,6.2,14,6.2s10.5-2.4,14-6.2"/>
<path class="st0" d="M12,30.2c2.2,1.7,5,2.8,8,2.8s5.8-1,8-2.8"/>
</svg>
