<svg id="Слой_1" xmlns="http://www.w3.org/2000/svg" viewBox="0 0 180 60"><style>.st0,.st1{fill-rule:evenodd;clip-rule:evenodd;fill:#1c2833}.st1{fill:#ff5300}.st2{fill:#1c2833}</style><path class="st0" d="M17.3 39c-2.9-.1-5.3-1.4-5.3-4.7 0-3-.2-6.1.2-9.1.6-4.2 3.3-6.8 7.5-7.2 1.8-.2 3.7-.1 5.5.3 1 .3 2 .7 2.8 1.3.3.2.4.4.8.1 2.7-2 5.7-2.1 8.9-1.7 5.1.6 7.3 4.4 7.4 8.9v12s-5.4-.5-5.4-5.1c0-2.2.1-4.3 0-6.5 0-1.2-.1-2.4-.7-3.5-.7-1.6-2-2.2-3.7-2.2-1.6 0-2.8.7-3.5 2.2-.3.8-.6 2.6-.6 3.5v11.4c-3.1-.1-5.5-1.3-5.5-4.8v-7.2c0-.5-.1-1-.2-1.5-.5-2.5-1.9-3.8-4.3-3.7-3.5.4-3.9 3.2-4 5.7 0 3.7.2 9.9.1 11.8z"/><path class="st1" d="M65.6 28.1c0 3.6-.9 6.6-3.4 8.9-3.3 2.9-8.7 3.3-12.2.6-3.1-2.3-3.5-8.1.7-10.3 2.9-1.5 5.9-1.5 9-.8.6.1.8.2.7-.6-.7-3.6-2.8-4.9-6.3-3.9-1 .3-2 .7-3.1.8-.5 0-1 0-1.4-.2-1.2-.5-1.3-1.2-.4-2.1 3.8-3.2 9.3-3.5 12.9-.5 2.1 1.7 3 3.9 3.4 6.5.1.6.1 1.2.1 1.6zm-9 1.3c-1 .1-2 .1-2.9.6-1.1.6-1.7 1.7-1.6 2.9.2 1.3.9 2.2 2.2 2.5 3.9.9 6-1.6 6.2-5.1 0-.4-.2-.4-.5-.5-1.1-.3-2.3-.3-3.4-.4z"/><path class="st0" d="M87.6 24.3c2-1.6 3.8-3 5.7-4.5 1.3-1 2.7-1.7 4.3-2 1.2-.2 2.2 0 3.1.9.5.5.5.8-.1 1.3-2.1 1.6-4.1 3.4-6.1 5-.5.4-.5.6-.2 1.1 2.3 3.4 3.1 4.6 7.5 11.2-1.7 1.2-4.2 1.5-5.7 0-1.5-1.4-2.5-3.2-3.7-4.9-.7-1-1.8-3.1-2.4-4.2-1.7 1.2-2.3 1.9-2.3 2.8v7.6c-3.1-.2-5.6-1.5-5.5-4.9.1-7.1.1-14.2.1-21.3 0-3.2.8-4.7 4-4.8.5 0 1.5.1 1.4.7-.1 6.1-.1 12.3-.1 16zM120.7 15.7c0-3.6 1.8-4.6 4.7-4.8.7 0 .4 0 .7 6.6 0 .5.3.5.6.5h4.7c.6 0 .7.2.6.7-.3 2.4-1.7 3.7-4.3 3.8-1.6.1-1.6.1-1.6 1.7 0 2.4-.2 4.8.2 7.2.2 1 .4 1.9 1.1 2.7 1.2 1.6 2.9 1.7 4.7 1.3.9-.2 1-.1 1 .8 0 1.5-1.2 2.8-2.9 3.2-2.8.7-5.8-.7-7.6-3.5-1.4-2.1-1.8-4.5-1.8-7-.2-2.1-.1-10.8-.1-13.2z"/><path class="st0" d="M109.6 30.8c-1.2 0-2.3-.1-3.5-.4-.5-.1-.7 0-.6.6.4 2.6 2.1 4.4 4.2 4.5 5.7 0 7.7-2.7 7.5-.6-.3 3.1-5 4.3-7.9 4.2-3.1-.1-5.9-1.7-8-5.2-2.5-4.7-1.3-11.1 2.7-14 3.9-2.9 10-2.4 13 1 2.4 2.8 1.7 6.8-1.5 8.6-1.6.9-3.5 1.3-5.9 1.3zm-.7-3.5c1.1 0 2.1-.1 3-.5 1.2-.6 1.7-1.5 1.5-2.8-.1-.9-.9-1.8-2-2-3.2-.8-5.5 1.3-6 4.4-.1.4.1.5.4.6 1.2.1 2.2.4 3.1.3z"/><path class="st2" d="M7.4 17.7c-1 0-1.9.2-2.5.5-.7.3-1.2.8-1.6 1.3-.4.5-.7 1.2-.9 1.8-.2.7-.3 1.4-.3 2.1v9.4c0 .7.1 1.4.3 2.1.2.7.5 1.3.9 1.8s.9 1 1.6 1.3c.7.3 1.5.5 2.5.5M148.3 18.6c1.5 0 2.9.3 4.1.8 1.2.6 2.2 1.3 3.1 2.3.8 1 1.5 2.1 2 3.4.5 1.3.7 2.7.7 4.2s-.3 2.9-.8 4.2c-.5 1.3-1.2 2.4-2.1 3.4-.9 1-1.9 1.7-3.1 2.3-1.2.6-2.5.8-3.8.8-1.5 0-2.9-.3-4.1-.8-1.2-.6-2.2-1.3-3.1-2.3-.8-1-1.5-2.1-1.9-3.4-.5-1.3-.7-2.7-.7-4.2 0-.3-.1-.9-.1-1.7V25v-3.1-3.2-2.8V14c0-.7.1-1.4.3-2.1.2-.7.4-1.3.8-1.8s.9-1 1.6-1.3c.7-.3 1.4-.5 2.4-.5v12.1c1.3-1 2.8-1.8 4.7-1.8zm4.8 10.7c.1-1.7-.1-3-.4-3.9-.4-1-.8-1.7-1.4-2.2-.5-.5-1.1-.8-1.7-1-.6-.1-1-.2-1.4-.2-.5 0-.9.1-1.5.3-.5.2-1 .5-1.5 1s-.9 1.2-1.2 2.2c-.3 1-.6 2.2-.6 3.8-.1 1.7.1 3 .5 3.9.4 1 .8 1.7 1.4 2.2.5.5 1.1.8 1.7 1 .6.1 1 .2 1.4.2.5 0 .9-.1 1.5-.3.5-.2 1-.5 1.5-1s.9-1.2 1.2-2.2c.2-.9.4-2.2.5-3.8zM172 22.3c.7-1.5 1.5-2.6 2.7-3.3 1.1-.6 2-.8 3.5-.3-6.4 17-7.7 20.6-10.6 28.4-1.4 3.7-4.6 3.6-6 3 2.5-5.8 4.3-10.4 4.6-11.3-.5-.3-1.3-.8-1.9-1.5-1.5-1.8-6.6-16.6-7.4-18.7 1.4-.4 2.2-.3 3.3.3 1.1.6 2.1 1.7 2.7 3.3 1 2.8 2.1 5.8 4.5 13l1.5-4.8c.5-1.3.9-2.8 1.5-4.2.6-1.4 1.1-2.8 1.6-3.9z"/><path class="st1" d="M66.1 33.8s.1 1.6 1 3.4c.7 1.3 1.5 1.9 1.5 1.9s-1.4.3-2.8.1c-2.1-.2-3.2-.7-3.2-.7s1.3-.8 2.1-2.1c.8-1.2 1.2-2 1.4-2.6zM7.4 16.4c-1.3.1-2.2.4-3.1.7-1.4.6-2.1 1.9-2.1 1.9v-3.2c.1-5.2 5.2-4.4 5.2-1.5v2.1z"/><path class="st0" d="M135.7 39c-.8 0-1.3-.7-1.4-1.5 0-.5.1-.9.5-1.3.3-.4.8-.6 1.3-.6h.1c.8.1 1.4.7 1.5 1.5 0 .4-.1.9-.4 1.2-.4.5-.9.7-1.6.7zM79.5 18.5c-2.2 0-2.5.1-3.7.2-1.5.2-2.8.6-3.8 1.3-.7-.9-1.5-1.4-2.8-1.5-.5 0-.7.1-.7.6.1 1.6 0 3.2 0 4.8v10.2c.1 3.4 2.2 4.7 5.4 4.8.1-5.7 0-8.2.1-12.1.1-2.8 1.4-4.2 3.9-4.6 2.8-.2 3.9-3.8 1.6-3.7z"/><g><path class="st2" d="M4.1 45.1v3.4C4.1 50 4 51 4 52.4c.5-1.1.8-1.8 1.3-2.8l2.3-4.5h2.9v9.5H8.3v-3.4c0-1.5.1-2.2.2-4h-.2c-.5 1.1-.8 1.8-1.2 2.7-.7 1.4-1.6 3.1-2.4 4.7H1.8v-9.5h2.3zM15.4 45.1v3.6H19v-3.6h2.4v9.5H19v-4h-3.6v4H13v-9.5h2.4zM30.9 45.1V47h-2.8v7.7h-2.4V47h-2.8v-1.9h8zM33.8 50.5c.1 1.7 1.4 2.5 2.9 2.5 1.1 0 1.9-.2 2.6-.4l.3 1.7c-.8.3-1.9.6-3.3.6-3.1 0-4.9-1.9-4.9-4.8 0-2.6 1.6-5.1 4.6-5.1 3.1 0 4.1 2.5 4.1 4.6 0 .4 0 .8-.1 1h-6.2zm4.1-1.7c0-.9-.4-2.3-2-2.3-1.5 0-2.1 1.3-2.2 2.3h4.2zM42.1 48.2c0-1.3 0-2.3-.1-3.2h2.1l.1 1.5c.7-1.1 1.8-1.7 3.2-1.7 2.2 0 4 1.9 4 4.8 0 3.4-2.2 5.1-4.3 5.1-1.2 0-2.2-.5-2.7-1.3v4.9H42V48.2zm2.4 2.4c0 .2 0 .4.1.7.2 1 1.1 1.7 2.1 1.7 1.5 0 2.4-1.3 2.4-3.1 0-1.7-.8-3-2.3-3-1 0-1.9.7-2.1 1.8-.1.2-.1.4-.1.6v1.3zM55.8 45.1v3.6h3.6v-3.6h2.4v9.5h-2.4v-4h-3.6v4h-2.4v-9.5h2.4zM66 50.5c.1 1.7 1.4 2.5 2.9 2.5 1.1 0 1.9-.2 2.6-.4l.3 1.7c-.8.3-1.9.6-3.3.6-3.1 0-4.9-1.9-4.9-4.8 0-2.6 1.6-5.1 4.6-5.1 3.1 0 4.1 2.5 4.1 4.6 0 .4 0 .8-.1 1H66zm4.2-1.7c0-.9-.4-2.3-2-2.3-1.5 0-2.1 1.3-2.2 2.3h4.2zM81.2 45.1V47h-2.8v7.7H76V47h-2.8v-1.9h8zM86.4 48.6v1.7h-4.9v-1.7h4.9zM88.5 45.1h3l1.3 4.1c.2.6.5 1.7.7 2.5.2-.7.6-1.9.9-2.9l1.3-3.7h3l.6 9.5h-2.2l-.1-4.1c0-.9-.1-2.2-.1-3.4h-.1c-.3 1.1-.5 1.6-1 3.1l-1.5 4.3h-1.7l-1.4-4.2c-.3-.9-.6-2.3-.9-3.2h-.1c0 1.2-.1 2.5-.1 3.4l-.1 4.1h-2.2l.7-9.5zM106.9 54.6l-.2-1.1h-.1c-.6.7-1.6 1.3-2.8 1.3-1.9 0-3-1.4-3-2.8 0-2.4 2.1-3.6 5.6-3.6v-.2c0-.6-.3-1.7-1.9-1.7-.9 0-1.9.3-2.5.7l-.5-1.6c.7-.4 1.9-.8 3.4-.8 3 0 3.9 1.9 3.9 4v3.4c0 .9 0 1.7.1 2.3h-2zm-.4-4.7c-1.7 0-3.3.3-3.3 1.8 0 .9.6 1.4 1.4 1.4 1 0 1.6-.6 1.9-1.3.1-.2.1-.4.1-.5v-1.4zM117.6 45.1V47h-3.9v7.6h-2.4v-9.5h6.3zM124.3 54.6l-.2-1.1h-.1c-.6.7-1.6 1.3-2.8 1.3-1.9 0-3-1.4-3-2.8 0-2.4 2.1-3.6 5.6-3.6v-.2c0-.6-.3-1.7-1.9-1.7-.9 0-1.9.3-2.5.7l-.5-1.6c.7-.4 1.9-.8 3.4-.8 3 0 3.9 1.9 3.9 4v3.4c0 .9 0 1.7.1 2.3h-2zm-.4-4.7c-1.7 0-3.3.3-3.3 1.8 0 .9.6 1.4 1.4 1.4 1 0 1.6-.6 1.9-1.3.1-.2.1-.4.1-.5v-1.4zM129.7 48.9h1.1c1.3 0 2.1-.5 2.1-1.2s-.6-1.2-1.7-1.2c-.8 0-1.7.3-2.3.7l-.5-1.4c1-.6 2.3-.9 3.5-.9 1.6 0 3.5.6 3.5 2.5 0 1.2-1.1 1.9-2.1 2.2 1.3.1 2.5.9 2.5 2.3 0 2.2-2.5 2.9-4.4 2.9-1.2 0-2.5-.3-3.4-.9l.5-1.5c.7.4 1.7.6 2.6.6 1.3 0 2-.5 2-1.3 0-1-1-1.3-2.4-1.3h-1.2v-1.5zM140 45.1v3.4c0 1.5-.1 2.5-.1 3.8h.1c.5-1.1.8-1.8 1.3-2.8l2.3-4.5h2.9v9.5h-2.3v-3.4c0-1.5.1-2.2.2-4h-.1c-.5 1.1-.8 1.8-1.2 2.7-.7 1.4-1.6 3.1-2.4 4.7h-2.9V45h2.2zM151.3 45.1v3.6h3.6v-3.6h2.4v9.5H155v-4h-3.6v4H149v-9.5h2.3z"/></g></svg>